<svg xmlns="http://www.w3.org/2000/svg" width="18" height="30" fill="none"><path fill="#fff" d="M10.6 30H5.8c-.8 0-1.4-.7-1.4-1.5V17.7H1.6c-.8 0-1.5-.6-1.5-1.4v-4.7c0-.8.7-1.4 1.5-1.4h2.8V7.8a8 8 0 0 1 2-5.6A7.5 7.5 0 0 1 12 0h3.7c.8 0 1.4.7 1.4 1.5v4.3c0 .8-.6 1.4-1.4 1.4h-2.5c-.7 0-1 .2-1 .2l-.1 1v1.8h3.4l.7.1c.5.3.8.8.8 1.3v4.7c0 .8-.7 1.4-1.5 1.4h-3.4v10.8c0 .8-.7 1.5-1.5 1.5Zm-4.5-1.8h4.2V17c0-.5.5-1 1-1h3.9v-4h-4a1 1 0 0 1-.9-1V8.3c0-.7 0-1.5.6-2 .6-.7 1.6-.8 2.3-.8h2.2V1.8H12c-3.6 0-5.9 2.3-5.9 6V11c0 .6-.4 1-1 1H2v4h3.3c.5 0 1 .5 1 1v11.3Zm9.6-26.4Z"/></svg>