<svg xmlns="http://www.w3.org/2000/svg" width="183" height="51" fill="none"><path fill="#fff" d="M14.2 24.2c0-1-.3-1.7-1-2.1-.6-.5-1.8-1-3.5-1.6-1.7-.5-3-1-4-1.6-2.6-1.5-4-3.4-4-5.8 0-1.3.4-2.4 1.1-3.4a7 7 0 0 1 3-2.4c1.4-.5 3-.8 4.6-.8 1.7 0 3.2.3 4.5.9a7 7 0 0 1 3 2.6 6.7 6.7 0 0 1 1.2 3.8h-4.9c0-1.1-.3-2-1-2.6-.7-.6-1.6-.9-2.9-.9-1.2 0-2 .3-2.7.8-.7.5-1 1.2-1 2 0 .7.4 1.4 1.1 1.9.8.5 2 1 3.4 1.4 2.8.9 4.8 2 6 3.1a6.1 6.1 0 0 1 2 4.6c0 2-.8 3.7-2.4 4.8a10.2 10.2 0 0 1-6.2 1.7c-1.8 0-3.4-.3-5-1A7 7 0 0 1 1 23h5c0 2.6 1.5 4 4.6 4 1.2 0 2-.3 2.7-.8.7-.4 1-1.1 1-2Zm46 2.2h10.3v4H55.3V6.7h4.9v19.6Zm26.7-1h-8.5l-1.6 5h-5.2l8.8-23.6h4.5l8.8 23.5h-5.2L87 25.5Zm-7.2-3.8h5.9l-3-8.9-2.9 8.9Zm24.9.1h-3.9v8.6H96V6.8h8.7c2.8 0 5 .6 6.5 1.9 1.5 1.2 2.2 3 2.2 5.2 0 1.6-.3 3-1 4a7 7 0 0 1-3.2 2.6l5.1 9.6v.2H109l-4.4-8.6Zm-3.9-4h4a4 4 0 0 0 2.8-.8c.6-.7 1-1.5 1-2.6s-.3-2-1-2.6c-.6-.7-1.6-1-2.9-1h-3.9v7Zm38.7 2.4h-9.3v6.3h11v4h-15.8V6.7H141v4h-10.9v5.5h9.3v3.8Zm13-5.2 4.3-8h5.6l-6.8 11.6 7 11.8h-5.7l-4.5-8.2-4.5 8.2H142l7-11.8-6.8-11.7h5.6l4.4 8.1Zm26.7 5.2h-9.3v6.3h11v4h-15.9V6.7h15.8v4h-11v5.5h9.4v3.8ZM37.2 10.2a10 10 0 1 0 0 20 10 10 0 0 0 0-20Zm0 18.2a8.2 8.2 0 1 1 0-16.5 8.2 8.2 0 0 1 0 16.5ZM37.2 3.6c-.4 0-.8.4-.8.9V8A.9.9 0 0 0 38 8V4.5c0-.5-.4-.9-.9-.9ZM49 8.5a.9.9 0 0 0-1.3 0l-2.4 2.4a.9.9 0 1 0 1.2 1.3L49 9.7c.3-.3.3-.9 0-1.2ZM29.2 28.2a.9.9 0 0 0-1.2 0l-2.5 2.4a.9.9 0 1 0 1.3 1.3l2.4-2.5c.4-.3.4-.9 0-1.2ZM53 19.3h-3.5a.9.9 0 1 0 0 1.7h3.4a.9.9 0 1 0 0-1.7ZM25 19.3h-3.4a.9.9 0 1 0 0 1.7H25a.9.9 0 1 0 0-1.7ZM29.2 11l-2.4-2.5a.9.9 0 0 0-1.3 1.2l2.5 2.5a.9.9 0 1 0 1.2-1.3ZM49 30.6l-2.5-2.4a.9.9 0 0 0-1.2 1.2l2.4 2.5a.9.9 0 0 0 1.3 0c.3-.4.3-1 0-1.3ZM60.3 48.7l.2-1.7.1-.8 5 .6a.9.9 0 1 0 .1-1.7l-4.8-.7.6-4.4 4.9.7a.9.9 0 1 0 .2-1.7l-4.9-.7.1-.8.3-1.8a.9.9 0 1 0-1.8-.2v.9l-4.4-.6a5.7 5.7 0 0 0-6.2 4l-7.7-1a4.6 4.6 0 0 1-4-5.3l.3-2a.9.9 0 0 0-1.8-.3l-.2 2c-.5 3.5 2 6.8 5.4 7.2l7.8 1.1c0 2.7 2 5.1 4.9 5.5l4.3.6-.2 1a.9.9 0 0 0 1.8.1Zm-5.7-3.4a4 4 0 0 1 1-7.8l4.4.6-1 7.8-4.4-.6ZM104.3 3.1a.9.9 0 1 0 0-1.7.9.9 0 0 0 0 1.7ZM100.2 3.1a.9.9 0 1 0 0-1.7.9.9 0 0 0 0 1.7Z"/></svg>