<svg xmlns="http://www.w3.org/2000/svg" width="31" height="30" fill="none"><path fill="#fff" d="M26 4.3A14.3 14.3 0 0 0 1.5 14.4c-.1 2.3.4 4.5 1.5 6.5L.6 28c-.1.4 0 1 .4 1.3a1.3 1.3 0 0 0 1.3.3l7-2.4A14.4 14.4 0 0 0 30 14.4c0-3.9-1.5-7.4-4.2-10.1Zm-1.3 19a12.5 12.5 0 0 1-14.8 2.2c-.4-.2-.7-.2-1-.1l-6.3 2.2 2.1-6.3c.2-.3.1-.7 0-1a12.6 12.6 0 0 1 11-18.5 12.5 12.5 0 0 1 12.7 12.6c0 3.3-1.3 6.5-3.7 8.9Z"/><path fill="#fff" d="M21.1 15.7c-.7-.7-1.7-.7-2.4 0l-.7.7c-1.8-1-3.2-2.5-4.2-4.2l.7-.8c.7-.6.7-1.7 0-2.3l-2-2c-.6-.6-1.7-.6-2.3 0L8.6 8.7c-.9.9-1 2.4-.1 4.3a17 17 0 0 0 3.6 5 17 17 0 0 0 5 3.7c1 .3 1.8.5 2.5.5.8 0 1.4-.2 1.9-.7L23 20a1.7 1.7 0 0 0 0-2.4l-1.9-2Zm-.8 4.6c-.3.3-1 .4-2.4-.2-1.5-.7-3-1.8-4.6-3.3-1.4-1.5-2.6-3-3.2-4.5-.6-1.4-.5-2.2-.3-2.4l1.6-1.5 1.8 1.8-.9 1c-.4.4-.5 1-.2 1.5 1.2 2.3 3 4.2 5.4 5.4.5.2 1.1.1 1.5-.3l1-.9 1.8 1.9-1.5 1.5Z"/></svg>